<?xml version="1.0" encoding="utf-8" standalone="no"?>
<!DOCTYPE svg PUBLIC "-//W3C//DTD SVG 1.1//EN"
  "http://www.w3.org/Graphics/SVG/1.1/DTD/svg11.dtd">
<svg height="345.6pt" version="1.1" viewBox="0 0 460.8 345.6" width="460.8pt" xmlns="http://www.w3.org/2000/svg" xmlns:xlink="http://www.w3.org/1999/xlink">
 <metadata>
  <rdf:RDF xmlns:cc="http://creativecommons.org/ns#" xmlns:dc="http://purl.org/dc/elements/1.1/" xmlns:rdf="http://www.w3.org/1999/02/22-rdf-syntax-ns#">
   <cc:Work>
    <dc:type rdf:resource="http://purl.org/dc/dcmitype/StillImage"/>
    <dc:date>2021-08-20T12:54:47.597683</dc:date>
    <dc:format>image/svg+xml</dc:format>
    <dc:creator>
     <cc:Agent>
      <dc:title>Matplotlib v3.4.3, https://matplotlib.org/</dc:title>
     </cc:Agent>
    </dc:creator>
   </cc:Work>
  </rdf:RDF>
 </metadata>
 <defs>
  <style type="text/css">*{stroke-linecap:butt;stroke-linejoin:round;}</style>
 </defs>
 <g id="figure_1">
  <g id="patch_1">
   <path d="M 0 345.6 
L 460.8 345.6 
L 460.8 0 
L 0 0 
z
" style="fill:#ffffff;"/>
  </g>
  <g id="axes_1">
   <g id="patch_2">
    <path d="M 57.6 307.584 
L 414.72 307.584 
L 414.72 41.472 
L 57.6 41.472 
z
" style="fill:#ffffff;"/>
   </g>
   <g id="matplotlib.axis_1">
    <g id="xtick_1">
     <g id="line2d_1">
      <path clip-path="url(#p0dde5e788c)" d="M 73.832727 307.584 
L 73.832727 41.472 
" style="fill:none;stroke:#b0b0b0;stroke-linecap:square;stroke-width:0.8;"/>
     </g>
     <g id="line2d_2">
      <defs>
       <path d="M 0 0 
L 0 3.5 
" id="m33082ce45b" style="stroke:#000000;stroke-width:0.8;"/>
      </defs>
      <g>
       <use style="stroke:#000000;stroke-width:0.8;" x="73.832727" xlink:href="#m33082ce45b" y="307.584"/>
      </g>
     </g>
     <g id="text_1">
      <!-- 0 -->
      <g transform="translate(70.651477 322.182437)scale(0.1 -0.1)">
       <defs>
        <path d="M 2034 4250 
Q 1547 4250 1301 3770 
Q 1056 3291 1056 2328 
Q 1056 1369 1301 889 
Q 1547 409 2034 409 
Q 2525 409 2770 889 
Q 3016 1369 3016 2328 
Q 3016 3291 2770 3770 
Q 2525 4250 2034 4250 
z
M 2034 4750 
Q 2819 4750 3233 4129 
Q 3647 3509 3647 2328 
Q 3647 1150 3233 529 
Q 2819 -91 2034 -91 
Q 1250 -91 836 529 
Q 422 1150 422 2328 
Q 422 3509 836 4129 
Q 1250 4750 2034 4750 
z
" id="DejaVuSans-30" transform="scale(0.015625)"/>
       </defs>
       <use xlink:href="#DejaVuSans-30"/>
      </g>
     </g>
    </g>
    <g id="xtick_2">
     <g id="line2d_3">
      <path clip-path="url(#p0dde5e788c)" d="M 128.122785 307.584 
L 128.122785 41.472 
" style="fill:none;stroke:#b0b0b0;stroke-linecap:square;stroke-width:0.8;"/>
     </g>
     <g id="line2d_4">
      <g>
       <use style="stroke:#000000;stroke-width:0.8;" x="128.122785" xlink:href="#m33082ce45b" y="307.584"/>
      </g>
     </g>
     <g id="text_2">
      <!-- 50 -->
      <g transform="translate(121.760285 322.182437)scale(0.1 -0.1)">
       <defs>
        <path d="M 691 4666 
L 3169 4666 
L 3169 4134 
L 1269 4134 
L 1269 2991 
Q 1406 3038 1543 3061 
Q 1681 3084 1819 3084 
Q 2600 3084 3056 2656 
Q 3513 2228 3513 1497 
Q 3513 744 3044 326 
Q 2575 -91 1722 -91 
Q 1428 -91 1123 -41 
Q 819 9 494 109 
L 494 744 
Q 775 591 1075 516 
Q 1375 441 1709 441 
Q 2250 441 2565 725 
Q 2881 1009 2881 1497 
Q 2881 1984 2565 2268 
Q 2250 2553 1709 2553 
Q 1456 2553 1204 2497 
Q 953 2441 691 2322 
L 691 4666 
z
" id="DejaVuSans-35" transform="scale(0.015625)"/>
       </defs>
       <use xlink:href="#DejaVuSans-35"/>
       <use x="63.623047" xlink:href="#DejaVuSans-30"/>
      </g>
     </g>
    </g>
    <g id="xtick_3">
     <g id="line2d_5">
      <path clip-path="url(#p0dde5e788c)" d="M 182.412843 307.584 
L 182.412843 41.472 
" style="fill:none;stroke:#b0b0b0;stroke-linecap:square;stroke-width:0.8;"/>
     </g>
     <g id="line2d_6">
      <g>
       <use style="stroke:#000000;stroke-width:0.8;" x="182.412843" xlink:href="#m33082ce45b" y="307.584"/>
      </g>
     </g>
     <g id="text_3">
      <!-- 100 -->
      <g transform="translate(172.869093 322.182437)scale(0.1 -0.1)">
       <defs>
        <path d="M 794 531 
L 1825 531 
L 1825 4091 
L 703 3866 
L 703 4441 
L 1819 4666 
L 2450 4666 
L 2450 531 
L 3481 531 
L 3481 0 
L 794 0 
L 794 531 
z
" id="DejaVuSans-31" transform="scale(0.015625)"/>
       </defs>
       <use xlink:href="#DejaVuSans-31"/>
       <use x="63.623047" xlink:href="#DejaVuSans-30"/>
       <use x="127.246094" xlink:href="#DejaVuSans-30"/>
      </g>
     </g>
    </g>
    <g id="xtick_4">
     <g id="line2d_7">
      <path clip-path="url(#p0dde5e788c)" d="M 236.702901 307.584 
L 236.702901 41.472 
" style="fill:none;stroke:#b0b0b0;stroke-linecap:square;stroke-width:0.8;"/>
     </g>
     <g id="line2d_8">
      <g>
       <use style="stroke:#000000;stroke-width:0.8;" x="236.702901" xlink:href="#m33082ce45b" y="307.584"/>
      </g>
     </g>
     <g id="text_4">
      <!-- 150 -->
      <g transform="translate(227.159151 322.182437)scale(0.1 -0.1)">
       <use xlink:href="#DejaVuSans-31"/>
       <use x="63.623047" xlink:href="#DejaVuSans-35"/>
       <use x="127.246094" xlink:href="#DejaVuSans-30"/>
      </g>
     </g>
    </g>
    <g id="xtick_5">
     <g id="line2d_9">
      <path clip-path="url(#p0dde5e788c)" d="M 290.992958 307.584 
L 290.992958 41.472 
" style="fill:none;stroke:#b0b0b0;stroke-linecap:square;stroke-width:0.8;"/>
     </g>
     <g id="line2d_10">
      <g>
       <use style="stroke:#000000;stroke-width:0.8;" x="290.992958" xlink:href="#m33082ce45b" y="307.584"/>
      </g>
     </g>
     <g id="text_5">
      <!-- 200 -->
      <g transform="translate(281.449208 322.182437)scale(0.1 -0.1)">
       <defs>
        <path d="M 1228 531 
L 3431 531 
L 3431 0 
L 469 0 
L 469 531 
Q 828 903 1448 1529 
Q 2069 2156 2228 2338 
Q 2531 2678 2651 2914 
Q 2772 3150 2772 3378 
Q 2772 3750 2511 3984 
Q 2250 4219 1831 4219 
Q 1534 4219 1204 4116 
Q 875 4013 500 3803 
L 500 4441 
Q 881 4594 1212 4672 
Q 1544 4750 1819 4750 
Q 2544 4750 2975 4387 
Q 3406 4025 3406 3419 
Q 3406 3131 3298 2873 
Q 3191 2616 2906 2266 
Q 2828 2175 2409 1742 
Q 1991 1309 1228 531 
z
" id="DejaVuSans-32" transform="scale(0.015625)"/>
       </defs>
       <use xlink:href="#DejaVuSans-32"/>
       <use x="63.623047" xlink:href="#DejaVuSans-30"/>
       <use x="127.246094" xlink:href="#DejaVuSans-30"/>
      </g>
     </g>
    </g>
    <g id="xtick_6">
     <g id="line2d_11">
      <path clip-path="url(#p0dde5e788c)" d="M 345.283016 307.584 
L 345.283016 41.472 
" style="fill:none;stroke:#b0b0b0;stroke-linecap:square;stroke-width:0.8;"/>
     </g>
     <g id="line2d_12">
      <g>
       <use style="stroke:#000000;stroke-width:0.8;" x="345.283016" xlink:href="#m33082ce45b" y="307.584"/>
      </g>
     </g>
     <g id="text_6">
      <!-- 250 -->
      <g transform="translate(335.739266 322.182437)scale(0.1 -0.1)">
       <use xlink:href="#DejaVuSans-32"/>
       <use x="63.623047" xlink:href="#DejaVuSans-35"/>
       <use x="127.246094" xlink:href="#DejaVuSans-30"/>
      </g>
     </g>
    </g>
    <g id="xtick_7">
     <g id="line2d_13">
      <path clip-path="url(#p0dde5e788c)" d="M 399.573074 307.584 
L 399.573074 41.472 
" style="fill:none;stroke:#b0b0b0;stroke-linecap:square;stroke-width:0.8;"/>
     </g>
     <g id="line2d_14">
      <g>
       <use style="stroke:#000000;stroke-width:0.8;" x="399.573074" xlink:href="#m33082ce45b" y="307.584"/>
      </g>
     </g>
     <g id="text_7">
      <!-- 300 -->
      <g transform="translate(390.029324 322.182437)scale(0.1 -0.1)">
       <defs>
        <path d="M 2597 2516 
Q 3050 2419 3304 2112 
Q 3559 1806 3559 1356 
Q 3559 666 3084 287 
Q 2609 -91 1734 -91 
Q 1441 -91 1130 -33 
Q 819 25 488 141 
L 488 750 
Q 750 597 1062 519 
Q 1375 441 1716 441 
Q 2309 441 2620 675 
Q 2931 909 2931 1356 
Q 2931 1769 2642 2001 
Q 2353 2234 1838 2234 
L 1294 2234 
L 1294 2753 
L 1863 2753 
Q 2328 2753 2575 2939 
Q 2822 3125 2822 3475 
Q 2822 3834 2567 4026 
Q 2313 4219 1838 4219 
Q 1578 4219 1281 4162 
Q 984 4106 628 3988 
L 628 4550 
Q 988 4650 1302 4700 
Q 1616 4750 1894 4750 
Q 2613 4750 3031 4423 
Q 3450 4097 3450 3541 
Q 3450 3153 3228 2886 
Q 3006 2619 2597 2516 
z
" id="DejaVuSans-33" transform="scale(0.015625)"/>
       </defs>
       <use xlink:href="#DejaVuSans-33"/>
       <use x="63.623047" xlink:href="#DejaVuSans-30"/>
       <use x="127.246094" xlink:href="#DejaVuSans-30"/>
      </g>
     </g>
    </g>
    <g id="text_8">
     <!-- Generations -->
     <g transform="translate(205.662344 335.860562)scale(0.1 -0.1)">
      <defs>
       <path d="M 3809 666 
L 3809 1919 
L 2778 1919 
L 2778 2438 
L 4434 2438 
L 4434 434 
Q 4069 175 3628 42 
Q 3188 -91 2688 -91 
Q 1594 -91 976 548 
Q 359 1188 359 2328 
Q 359 3472 976 4111 
Q 1594 4750 2688 4750 
Q 3144 4750 3555 4637 
Q 3966 4525 4313 4306 
L 4313 3634 
Q 3963 3931 3569 4081 
Q 3175 4231 2741 4231 
Q 1884 4231 1454 3753 
Q 1025 3275 1025 2328 
Q 1025 1384 1454 906 
Q 1884 428 2741 428 
Q 3075 428 3337 486 
Q 3600 544 3809 666 
z
" id="DejaVuSans-47" transform="scale(0.015625)"/>
       <path d="M 3597 1894 
L 3597 1613 
L 953 1613 
Q 991 1019 1311 708 
Q 1631 397 2203 397 
Q 2534 397 2845 478 
Q 3156 559 3463 722 
L 3463 178 
Q 3153 47 2828 -22 
Q 2503 -91 2169 -91 
Q 1331 -91 842 396 
Q 353 884 353 1716 
Q 353 2575 817 3079 
Q 1281 3584 2069 3584 
Q 2775 3584 3186 3129 
Q 3597 2675 3597 1894 
z
M 3022 2063 
Q 3016 2534 2758 2815 
Q 2500 3097 2075 3097 
Q 1594 3097 1305 2825 
Q 1016 2553 972 2059 
L 3022 2063 
z
" id="DejaVuSans-65" transform="scale(0.015625)"/>
       <path d="M 3513 2113 
L 3513 0 
L 2938 0 
L 2938 2094 
Q 2938 2591 2744 2837 
Q 2550 3084 2163 3084 
Q 1697 3084 1428 2787 
Q 1159 2491 1159 1978 
L 1159 0 
L 581 0 
L 581 3500 
L 1159 3500 
L 1159 2956 
Q 1366 3272 1645 3428 
Q 1925 3584 2291 3584 
Q 2894 3584 3203 3211 
Q 3513 2838 3513 2113 
z
" id="DejaVuSans-6e" transform="scale(0.015625)"/>
       <path d="M 2631 2963 
Q 2534 3019 2420 3045 
Q 2306 3072 2169 3072 
Q 1681 3072 1420 2755 
Q 1159 2438 1159 1844 
L 1159 0 
L 581 0 
L 581 3500 
L 1159 3500 
L 1159 2956 
Q 1341 3275 1631 3429 
Q 1922 3584 2338 3584 
Q 2397 3584 2469 3576 
Q 2541 3569 2628 3553 
L 2631 2963 
z
" id="DejaVuSans-72" transform="scale(0.015625)"/>
       <path d="M 2194 1759 
Q 1497 1759 1228 1600 
Q 959 1441 959 1056 
Q 959 750 1161 570 
Q 1363 391 1709 391 
Q 2188 391 2477 730 
Q 2766 1069 2766 1631 
L 2766 1759 
L 2194 1759 
z
M 3341 1997 
L 3341 0 
L 2766 0 
L 2766 531 
Q 2569 213 2275 61 
Q 1981 -91 1556 -91 
Q 1019 -91 701 211 
Q 384 513 384 1019 
Q 384 1609 779 1909 
Q 1175 2209 1959 2209 
L 2766 2209 
L 2766 2266 
Q 2766 2663 2505 2880 
Q 2244 3097 1772 3097 
Q 1472 3097 1187 3025 
Q 903 2953 641 2809 
L 641 3341 
Q 956 3463 1253 3523 
Q 1550 3584 1831 3584 
Q 2591 3584 2966 3190 
Q 3341 2797 3341 1997 
z
" id="DejaVuSans-61" transform="scale(0.015625)"/>
       <path d="M 1172 4494 
L 1172 3500 
L 2356 3500 
L 2356 3053 
L 1172 3053 
L 1172 1153 
Q 1172 725 1289 603 
Q 1406 481 1766 481 
L 2356 481 
L 2356 0 
L 1766 0 
Q 1100 0 847 248 
Q 594 497 594 1153 
L 594 3053 
L 172 3053 
L 172 3500 
L 594 3500 
L 594 4494 
L 1172 4494 
z
" id="DejaVuSans-74" transform="scale(0.015625)"/>
       <path d="M 603 3500 
L 1178 3500 
L 1178 0 
L 603 0 
L 603 3500 
z
M 603 4863 
L 1178 4863 
L 1178 4134 
L 603 4134 
L 603 4863 
z
" id="DejaVuSans-69" transform="scale(0.015625)"/>
       <path d="M 1959 3097 
Q 1497 3097 1228 2736 
Q 959 2375 959 1747 
Q 959 1119 1226 758 
Q 1494 397 1959 397 
Q 2419 397 2687 759 
Q 2956 1122 2956 1747 
Q 2956 2369 2687 2733 
Q 2419 3097 1959 3097 
z
M 1959 3584 
Q 2709 3584 3137 3096 
Q 3566 2609 3566 1747 
Q 3566 888 3137 398 
Q 2709 -91 1959 -91 
Q 1206 -91 779 398 
Q 353 888 353 1747 
Q 353 2609 779 3096 
Q 1206 3584 1959 3584 
z
" id="DejaVuSans-6f" transform="scale(0.015625)"/>
       <path d="M 2834 3397 
L 2834 2853 
Q 2591 2978 2328 3040 
Q 2066 3103 1784 3103 
Q 1356 3103 1142 2972 
Q 928 2841 928 2578 
Q 928 2378 1081 2264 
Q 1234 2150 1697 2047 
L 1894 2003 
Q 2506 1872 2764 1633 
Q 3022 1394 3022 966 
Q 3022 478 2636 193 
Q 2250 -91 1575 -91 
Q 1294 -91 989 -36 
Q 684 19 347 128 
L 347 722 
Q 666 556 975 473 
Q 1284 391 1588 391 
Q 1994 391 2212 530 
Q 2431 669 2431 922 
Q 2431 1156 2273 1281 
Q 2116 1406 1581 1522 
L 1381 1569 
Q 847 1681 609 1914 
Q 372 2147 372 2553 
Q 372 3047 722 3315 
Q 1072 3584 1716 3584 
Q 2034 3584 2315 3537 
Q 2597 3491 2834 3397 
z
" id="DejaVuSans-73" transform="scale(0.015625)"/>
      </defs>
      <use xlink:href="#DejaVuSans-47"/>
      <use x="77.490234" xlink:href="#DejaVuSans-65"/>
      <use x="139.013672" xlink:href="#DejaVuSans-6e"/>
      <use x="202.392578" xlink:href="#DejaVuSans-65"/>
      <use x="263.916016" xlink:href="#DejaVuSans-72"/>
      <use x="305.029297" xlink:href="#DejaVuSans-61"/>
      <use x="366.308594" xlink:href="#DejaVuSans-74"/>
      <use x="405.517578" xlink:href="#DejaVuSans-69"/>
      <use x="433.300781" xlink:href="#DejaVuSans-6f"/>
      <use x="494.482422" xlink:href="#DejaVuSans-6e"/>
      <use x="557.861328" xlink:href="#DejaVuSans-73"/>
     </g>
    </g>
   </g>
   <g id="matplotlib.axis_2">
    <g id="ytick_1">
     <g id="line2d_15">
      <path clip-path="url(#p0dde5e788c)" d="M 57.6 287.913507 
L 414.72 287.913507 
" style="fill:none;stroke:#b0b0b0;stroke-linecap:square;stroke-width:0.8;"/>
     </g>
     <g id="line2d_16">
      <defs>
       <path d="M 0 0 
L -3.5 0 
" id="m0012061d39" style="stroke:#000000;stroke-width:0.8;"/>
      </defs>
      <g>
       <use style="stroke:#000000;stroke-width:0.8;" x="57.6" xlink:href="#m0012061d39" y="287.913507"/>
      </g>
     </g>
     <g id="text_9">
      <!-- 1.75 -->
      <g transform="translate(28.334375 291.712726)scale(0.1 -0.1)">
       <defs>
        <path d="M 684 794 
L 1344 794 
L 1344 0 
L 684 0 
L 684 794 
z
" id="DejaVuSans-2e" transform="scale(0.015625)"/>
        <path d="M 525 4666 
L 3525 4666 
L 3525 4397 
L 1831 0 
L 1172 0 
L 2766 4134 
L 525 4134 
L 525 4666 
z
" id="DejaVuSans-37" transform="scale(0.015625)"/>
       </defs>
       <use xlink:href="#DejaVuSans-31"/>
       <use x="63.623047" xlink:href="#DejaVuSans-2e"/>
       <use x="95.410156" xlink:href="#DejaVuSans-37"/>
       <use x="159.033203" xlink:href="#DejaVuSans-35"/>
      </g>
     </g>
    </g>
    <g id="ytick_2">
     <g id="line2d_17">
      <path clip-path="url(#p0dde5e788c)" d="M 57.6 255.618727 
L 414.72 255.618727 
" style="fill:none;stroke:#b0b0b0;stroke-linecap:square;stroke-width:0.8;"/>
     </g>
     <g id="line2d_18">
      <g>
       <use style="stroke:#000000;stroke-width:0.8;" x="57.6" xlink:href="#m0012061d39" y="255.618727"/>
      </g>
     </g>
     <g id="text_10">
      <!-- 2.00 -->
      <g transform="translate(28.334375 259.417946)scale(0.1 -0.1)">
       <use xlink:href="#DejaVuSans-32"/>
       <use x="63.623047" xlink:href="#DejaVuSans-2e"/>
       <use x="95.410156" xlink:href="#DejaVuSans-30"/>
       <use x="159.033203" xlink:href="#DejaVuSans-30"/>
      </g>
     </g>
    </g>
    <g id="ytick_3">
     <g id="line2d_19">
      <path clip-path="url(#p0dde5e788c)" d="M 57.6 223.323948 
L 414.72 223.323948 
" style="fill:none;stroke:#b0b0b0;stroke-linecap:square;stroke-width:0.8;"/>
     </g>
     <g id="line2d_20">
      <g>
       <use style="stroke:#000000;stroke-width:0.8;" x="57.6" xlink:href="#m0012061d39" y="223.323948"/>
      </g>
     </g>
     <g id="text_11">
      <!-- 2.25 -->
      <g transform="translate(28.334375 227.123166)scale(0.1 -0.1)">
       <use xlink:href="#DejaVuSans-32"/>
       <use x="63.623047" xlink:href="#DejaVuSans-2e"/>
       <use x="95.410156" xlink:href="#DejaVuSans-32"/>
       <use x="159.033203" xlink:href="#DejaVuSans-35"/>
      </g>
     </g>
    </g>
    <g id="ytick_4">
     <g id="line2d_21">
      <path clip-path="url(#p0dde5e788c)" d="M 57.6 191.029168 
L 414.72 191.029168 
" style="fill:none;stroke:#b0b0b0;stroke-linecap:square;stroke-width:0.8;"/>
     </g>
     <g id="line2d_22">
      <g>
       <use style="stroke:#000000;stroke-width:0.8;" x="57.6" xlink:href="#m0012061d39" y="191.029168"/>
      </g>
     </g>
     <g id="text_12">
      <!-- 2.50 -->
      <g transform="translate(28.334375 194.828387)scale(0.1 -0.1)">
       <use xlink:href="#DejaVuSans-32"/>
       <use x="63.623047" xlink:href="#DejaVuSans-2e"/>
       <use x="95.410156" xlink:href="#DejaVuSans-35"/>
       <use x="159.033203" xlink:href="#DejaVuSans-30"/>
      </g>
     </g>
    </g>
    <g id="ytick_5">
     <g id="line2d_23">
      <path clip-path="url(#p0dde5e788c)" d="M 57.6 158.734388 
L 414.72 158.734388 
" style="fill:none;stroke:#b0b0b0;stroke-linecap:square;stroke-width:0.8;"/>
     </g>
     <g id="line2d_24">
      <g>
       <use style="stroke:#000000;stroke-width:0.8;" x="57.6" xlink:href="#m0012061d39" y="158.734388"/>
      </g>
     </g>
     <g id="text_13">
      <!-- 2.75 -->
      <g transform="translate(28.334375 162.533607)scale(0.1 -0.1)">
       <use xlink:href="#DejaVuSans-32"/>
       <use x="63.623047" xlink:href="#DejaVuSans-2e"/>
       <use x="95.410156" xlink:href="#DejaVuSans-37"/>
       <use x="159.033203" xlink:href="#DejaVuSans-35"/>
      </g>
     </g>
    </g>
    <g id="ytick_6">
     <g id="line2d_25">
      <path clip-path="url(#p0dde5e788c)" d="M 57.6 126.439609 
L 414.72 126.439609 
" style="fill:none;stroke:#b0b0b0;stroke-linecap:square;stroke-width:0.8;"/>
     </g>
     <g id="line2d_26">
      <g>
       <use style="stroke:#000000;stroke-width:0.8;" x="57.6" xlink:href="#m0012061d39" y="126.439609"/>
      </g>
     </g>
     <g id="text_14">
      <!-- 3.00 -->
      <g transform="translate(28.334375 130.238827)scale(0.1 -0.1)">
       <use xlink:href="#DejaVuSans-33"/>
       <use x="63.623047" xlink:href="#DejaVuSans-2e"/>
       <use x="95.410156" xlink:href="#DejaVuSans-30"/>
       <use x="159.033203" xlink:href="#DejaVuSans-30"/>
      </g>
     </g>
    </g>
    <g id="ytick_7">
     <g id="line2d_27">
      <path clip-path="url(#p0dde5e788c)" d="M 57.6 94.144829 
L 414.72 94.144829 
" style="fill:none;stroke:#b0b0b0;stroke-linecap:square;stroke-width:0.8;"/>
     </g>
     <g id="line2d_28">
      <g>
       <use style="stroke:#000000;stroke-width:0.8;" x="57.6" xlink:href="#m0012061d39" y="94.144829"/>
      </g>
     </g>
     <g id="text_15">
      <!-- 3.25 -->
      <g transform="translate(28.334375 97.944048)scale(0.1 -0.1)">
       <use xlink:href="#DejaVuSans-33"/>
       <use x="63.623047" xlink:href="#DejaVuSans-2e"/>
       <use x="95.410156" xlink:href="#DejaVuSans-32"/>
       <use x="159.033203" xlink:href="#DejaVuSans-35"/>
      </g>
     </g>
    </g>
    <g id="ytick_8">
     <g id="line2d_29">
      <path clip-path="url(#p0dde5e788c)" d="M 57.6 61.850049 
L 414.72 61.850049 
" style="fill:none;stroke:#b0b0b0;stroke-linecap:square;stroke-width:0.8;"/>
     </g>
     <g id="line2d_30">
      <g>
       <use style="stroke:#000000;stroke-width:0.8;" x="57.6" xlink:href="#m0012061d39" y="61.850049"/>
      </g>
     </g>
     <g id="text_16">
      <!-- 3.50 -->
      <g transform="translate(28.334375 65.649268)scale(0.1 -0.1)">
       <use xlink:href="#DejaVuSans-33"/>
       <use x="63.623047" xlink:href="#DejaVuSans-2e"/>
       <use x="95.410156" xlink:href="#DejaVuSans-35"/>
       <use x="159.033203" xlink:href="#DejaVuSans-30"/>
      </g>
     </g>
    </g>
    <g id="text_17">
     <!-- Fitness -->
     <g transform="translate(22.254687 191.845187)rotate(-90)scale(0.1 -0.1)">
      <defs>
       <path d="M 628 4666 
L 3309 4666 
L 3309 4134 
L 1259 4134 
L 1259 2759 
L 3109 2759 
L 3109 2228 
L 1259 2228 
L 1259 0 
L 628 0 
L 628 4666 
z
" id="DejaVuSans-46" transform="scale(0.015625)"/>
      </defs>
      <use xlink:href="#DejaVuSans-46"/>
      <use x="50.269531" xlink:href="#DejaVuSans-69"/>
      <use x="78.052734" xlink:href="#DejaVuSans-74"/>
      <use x="117.261719" xlink:href="#DejaVuSans-6e"/>
      <use x="180.640625" xlink:href="#DejaVuSans-65"/>
      <use x="242.164062" xlink:href="#DejaVuSans-73"/>
      <use x="294.263672" xlink:href="#DejaVuSans-73"/>
     </g>
    </g>
   </g>
   <g id="line2d_31">
    <path clip-path="url(#p0dde5e788c)" d="M 73.832727 231.706723 
L 74.918528 213.325041 
L 76.00433 192.581558 
L 77.090131 205.145293 
L 78.175932 203.035734 
L 79.261733 211.144585 
L 80.347534 207.30784 
L 81.433335 203.056378 
L 82.519137 215.437937 
L 83.604938 189.534913 
L 84.690739 196.226496 
L 85.77654 206.859672 
L 86.862341 191.589061 
L 87.948142 184.09508 
L 89.033943 214.61654 
L 90.119745 201.453308 
L 91.205546 177.223509 
L 92.291347 203.348249 
L 93.377148 208.967535 
L 94.462949 192.000306 
L 95.54875 210.766125 
L 96.634552 201.354379 
L 97.720353 203.78409 
L 98.806154 178.050248 
L 100.977756 215.736534 
L 102.063557 197.357005 
L 103.149358 224.663642 
L 104.23516 196.783639 
L 105.320961 184.371022 
L 106.406762 190.068215 
L 107.492563 197.317977 
L 108.578364 217.697013 
L 109.664165 191.259256 
L 110.749967 215.365475 
L 111.835768 200.302816 
L 112.921569 166.651996 
L 114.00737 213.425556 
L 115.093171 226.712387 
L 116.178972 190.717785 
L 117.264773 213.848203 
L 118.350575 196.897126 
L 119.436376 197.471304 
L 120.522177 236.339292 
L 121.607978 184.705049 
L 122.693779 197.401444 
L 123.77958 207.881814 
L 124.865382 198.430742 
L 125.951183 190.031985 
L 127.036984 211.769433 
L 128.122785 198.683285 
L 129.208586 206.280968 
L 130.294387 185.747685 
L 131.380189 204.908829 
L 132.46599 214.293975 
L 133.551791 198.316641 
L 134.637592 190.581982 
L 136.809194 207.238702 
L 137.894995 190.853275 
L 138.980797 203.134128 
L 141.152399 195.934958 
L 142.2382 206.678651 
L 143.324001 176.277095 
L 144.409802 194.16904 
L 145.495604 200.979112 
L 146.581405 204.173016 
L 147.667206 206.365273 
L 148.753007 216.272485 
L 149.838808 215.435771 
L 150.924609 200.186538 
L 152.01041 215.379755 
L 153.096212 218.435339 
L 154.182013 209.786098 
L 155.267814 216.398952 
L 156.353615 208.25025 
L 157.439416 214.748383 
L 158.525217 197.597926 
L 159.611019 188.050015 
L 160.69682 222.784561 
L 161.782621 212.385691 
L 162.868422 222.549277 
L 163.954223 204.772299 
L 165.040024 194.458332 
L 166.125825 200.395314 
L 167.211627 197.501956 
L 168.297428 208.956176 
L 169.383229 190.290266 
L 170.46903 200.256839 
L 171.554831 195.224308 
L 172.640632 179.188445 
L 173.726434 188.295012 
L 174.812235 195.965761 
L 175.898036 191.510158 
L 176.983837 177.320758 
L 178.069638 170.2833 
L 179.155439 185.294175 
L 180.24124 188.362257 
L 181.327042 173.20296 
L 182.412843 183.660966 
L 183.498644 202.303484 
L 184.584445 205.070225 
L 185.670246 196.635964 
L 186.756047 207.362387 
L 187.841849 194.255789 
L 188.92765 195.568438 
L 190.013451 167.332284 
L 191.099252 192.01318 
L 192.185053 183.932402 
L 193.270854 186.119852 
L 194.356656 184.172884 
L 195.442457 203.116134 
L 196.528258 185.693993 
L 197.614059 176.404137 
L 198.69986 184.82238 
L 199.785661 206.128157 
L 200.871462 186.431707 
L 201.957264 194.069463 
L 203.043065 200.039689 
L 204.128866 183.651625 
L 205.214667 184.283941 
L 206.300468 195.442409 
L 207.386269 185.778909 
L 208.472071 179.810385 
L 209.557872 186.287551 
L 210.643673 204.464078 
L 211.729474 181.7106 
L 212.815275 175.388659 
L 213.901076 186.873624 
L 214.986877 176.641523 
L 216.072679 189.628712 
L 217.15848 192.218866 
L 218.244281 176.527925 
L 219.330082 200.110096 
L 220.415883 185.838437 
L 221.501684 181.037026 
L 222.587486 187.923599 
L 223.673287 192.638325 
L 224.759088 169.66539 
L 225.844889 187.167999 
L 226.93069 194.483982 
L 228.016491 188.608752 
L 229.102292 184.48289 
L 230.188094 170.59406 
L 231.273895 169.502273 
L 232.359696 176.929491 
L 233.445497 178.441618 
L 234.531298 192.089151 
L 235.617099 177.249013 
L 236.702901 176.333804 
L 237.788702 177.787222 
L 238.874503 192.88281 
L 239.960304 180.872039 
L 241.046105 170.329287 
L 242.131906 178.324772 
L 243.217708 193.950965 
L 244.303509 185.733891 
L 245.38931 185.491441 
L 246.475111 195.788492 
L 247.560912 181.109463 
L 248.646713 187.443765 
L 249.732514 192.711203 
L 250.818316 169.780507 
L 251.904117 188.661964 
L 252.989918 186.08362 
L 254.075719 185.249562 
L 255.16152 184.205903 
L 256.247321 189.438833 
L 257.333123 179.832486 
L 258.418924 176.357705 
L 259.504725 184.171326 
L 260.590526 185.126096 
L 261.676327 180.320795 
L 262.762128 186.97307 
L 263.847929 202.274002 
L 264.933731 164.257576 
L 266.019532 197.45259 
L 267.105333 179.262848 
L 268.191134 186.204677 
L 269.276935 190.334051 
L 270.362736 181.613954 
L 271.448538 170.949867 
L 272.534339 169.95163 
L 273.62014 178.190968 
L 274.705941 199.158232 
L 275.791742 190.19303 
L 276.877543 165.236478 
L 277.963344 165.156227 
L 279.049146 188.393749 
L 280.134947 206.106765 
L 281.220748 192.668234 
L 282.306549 152.526102 
L 283.39235 208.746607 
L 284.478151 183.903236 
L 285.563953 180.185514 
L 286.649754 205.60251 
L 287.735555 187.122696 
L 288.821356 180.692528 
L 289.907157 191.714111 
L 290.992958 194.712563 
L 292.07876 178.999883 
L 293.164561 188.620613 
L 294.250362 161.823594 
L 295.336163 198.895496 
L 296.421964 175.142859 
L 297.507765 187.714891 
L 298.593566 197.747046 
L 299.679368 210.876096 
L 300.765169 199.474366 
L 301.85097 196.083506 
L 302.936771 200.838573 
L 304.022572 199.507055 
L 305.108373 171.522674 
L 306.194175 194.138653 
L 307.279976 200.560709 
L 308.365777 199.1387 
L 309.451578 202.088521 
L 310.537379 196.483703 
L 311.62318 203.138811 
L 312.708981 206.154928 
L 313.794783 195.425439 
L 314.880584 197.384627 
L 315.966385 196.847969 
L 317.052186 170.25582 
L 318.137987 192.517778 
L 319.223788 200.314269 
L 320.30959 204.079183 
L 321.395391 182.419547 
L 322.481192 184.501481 
L 323.566993 177.0467 
L 324.652794 180.293342 
L 325.738595 196.704592 
L 326.824396 186.941145 
L 327.910198 175.108561 
L 328.995999 213.579328 
L 330.0818 187.526498 
L 331.167601 169.182581 
L 332.253402 214.039526 
L 333.339203 205.425522 
L 334.425005 176.172388 
L 335.510806 187.460696 
L 336.596607 209.293713 
L 337.682408 179.428386 
L 338.768209 202.400516 
L 339.85401 180.522306 
L 340.939811 187.563279 
L 342.025613 184.928514 
L 343.111414 196.280498 
L 345.283016 211.95312 
L 346.368817 189.401277 
L 347.454618 196.192272 
L 348.54042 192.555559 
L 349.626221 203.799354 
L 350.712022 198.915918 
L 351.797823 199.931038 
L 353.969425 177.713755 
L 355.055227 176.621544 
L 356.141028 190.790386 
L 357.226829 202.372634 
L 358.31263 181.781203 
L 359.398431 193.575156 
L 360.484232 191.806883 
L 361.570033 186.515197 
L 362.655835 174.431322 
L 363.741636 195.090201 
L 364.827437 198.062744 
L 365.913238 173.933738 
L 366.999039 185.222209 
L 368.08484 193.522544 
L 369.170642 176.60655 
L 370.256443 208.685187 
L 371.342244 198.057442 
L 372.428045 198.260143 
L 373.513846 196.192522 
L 374.599647 188.337245 
L 375.685448 191.941291 
L 376.77125 163.045283 
L 377.857051 183.350704 
L 378.942852 181.407193 
L 380.028653 187.873113 
L 381.114454 188.237954 
L 382.200255 211.371254 
L 383.286057 202.730727 
L 384.371858 180.086811 
L 385.457659 187.997874 
L 386.54346 190.973202 
L 387.629261 192.092931 
L 388.715062 205.031305 
L 389.800863 196.232972 
L 390.886665 168.977827 
L 391.972466 167.355492 
L 393.058267 202.00543 
L 394.144068 189.122939 
L 395.229869 183.433942 
L 396.31567 208.634584 
L 397.401472 191.155789 
L 398.487273 193.248473 
L 398.487273 193.248473 
" style="fill:none;stroke:#0000ff;stroke-linecap:square;stroke-width:1.5;"/>
   </g>
   <g id="line2d_32">
    <path clip-path="url(#p0dde5e788c)" d="M 73.832727 275.597802 
L 74.918528 255.701799 
L 76.00433 238.11213 
L 77.090131 250.057077 
L 78.175932 246.528696 
L 79.261733 251.523215 
L 80.347534 250.98866 
L 81.433335 253.19268 
L 82.519137 266.331476 
L 83.604938 241.151019 
L 84.690739 263.240124 
L 85.77654 264.552188 
L 86.862341 240.74624 
L 87.948142 239.201805 
L 89.033943 264.586419 
L 90.119745 254.773644 
L 91.205546 232.804284 
L 92.291347 257.125254 
L 93.377148 268.010671 
L 94.462949 251.270758 
L 95.54875 268.020635 
L 96.634552 259.133355 
L 97.720353 266.478626 
L 98.806154 237.665301 
L 99.891955 258.446333 
L 100.977756 276.857457 
L 102.063557 261.228369 
L 103.149358 276.089043 
L 104.23516 253.332398 
L 105.320961 248.418048 
L 106.406762 253.793118 
L 107.492563 261.277783 
L 108.578364 277.466378 
L 109.664165 255.259276 
L 110.749967 273.824115 
L 111.835768 260.834672 
L 112.921569 222.694497 
L 114.00737 271.985474 
L 115.093171 278.245574 
L 116.178972 254.917907 
L 117.264773 271.589595 
L 118.350575 260.654291 
L 119.436376 261.721896 
L 120.522177 295.488 
L 121.607978 248.819131 
L 122.693779 261.539233 
L 123.77958 267.783736 
L 124.865382 258.194559 
L 125.951183 247.27052 
L 127.036984 265.979004 
L 128.122785 257.87492 
L 129.208586 274.776487 
L 130.294387 257.913093 
L 131.380189 266.365238 
L 132.46599 271.863696 
L 133.551791 257.50026 
L 134.637592 254.745541 
L 135.723393 258.743634 
L 136.809194 267.447697 
L 137.894995 255.270967 
L 138.980797 265.833299 
L 140.066598 272.141878 
L 141.152399 256.683899 
L 142.2382 266.804813 
L 143.324001 237.788379 
L 144.409802 254.945593 
L 145.495604 263.1462 
L 146.581405 265.921411 
L 147.667206 262.850088 
L 148.753007 271.015665 
L 149.838808 271.995941 
L 150.924609 262.501182 
L 152.01041 273.034146 
L 153.096212 273.345301 
L 154.182013 270.998714 
L 155.267814 273.761084 
L 156.353615 268.469782 
L 157.439416 272.9613 
L 159.611019 250.345468 
L 160.69682 278.423094 
L 161.782621 270.147779 
L 162.868422 279.641252 
L 163.954223 267.082857 
L 165.040024 258.924587 
L 166.125825 262.25587 
L 167.211627 259.631797 
L 168.297428 265.694334 
L 169.383229 248.402059 
L 170.46903 257.781395 
L 171.554831 250.793472 
L 172.640632 238.83751 
L 173.726434 251.17254 
L 174.812235 259.504658 
L 175.898036 251.84916 
L 176.983837 236.626283 
L 178.069638 227.412551 
L 179.155439 247.462325 
L 180.24124 248.883013 
L 181.327042 234.314154 
L 182.412843 244.917889 
L 183.498644 262.593833 
L 184.584445 272.750066 
L 185.670246 260.548678 
L 186.756047 269.494125 
L 187.841849 254.19818 
L 188.92765 259.773523 
L 190.013451 221.794691 
L 191.099252 252.199404 
L 192.185053 241.490405 
L 193.270854 249.804117 
L 194.356656 246.629077 
L 195.442457 267.720885 
L 196.528258 248.411202 
L 197.614059 240.384236 
L 198.69986 248.867424 
L 199.785661 272.053984 
L 200.871462 257.786426 
L 201.957264 259.34932 
L 203.043065 265.734436 
L 204.128866 249.969357 
L 205.214667 247.831776 
L 206.300468 260.188848 
L 207.386269 250.081504 
L 208.472071 247.816141 
L 209.557872 251.892932 
L 210.643673 275.541068 
L 211.729474 243.896416 
L 212.815275 235.925372 
L 213.901076 253.727974 
L 214.986877 244.034213 
L 217.15848 270.128394 
L 218.244281 245.055163 
L 219.330082 267.053615 
L 220.415883 252.430488 
L 221.501684 247.251421 
L 222.587486 253.843639 
L 223.673287 257.615826 
L 224.759088 241.069427 
L 225.844889 255.217368 
L 226.93069 264.435122 
L 228.016491 253.756873 
L 229.102292 255.652555 
L 230.188094 236.045025 
L 231.273895 231.937631 
L 232.359696 244.496591 
L 233.445497 243.209581 
L 234.531298 261.077115 
L 235.617099 240.35378 
L 237.788702 245.044334 
L 238.874503 262.442835 
L 241.046105 234.548506 
L 242.131906 248.3843 
L 243.217708 260.276411 
L 244.303509 255.151685 
L 245.38931 255.956805 
L 246.475111 263.195163 
L 247.560912 249.001116 
L 248.646713 255.490154 
L 249.732514 267.429533 
L 250.818316 233.150123 
L 251.904117 259.950033 
L 252.989918 253.847109 
L 254.075719 253.735798 
L 255.16152 253.900108 
L 256.247321 258.314592 
L 257.333123 246.512136 
L 258.418924 243.613631 
L 259.504725 251.935708 
L 260.590526 251.169287 
L 261.676327 245.074482 
L 262.762128 259.018358 
L 263.847929 268.92437 
L 264.933731 227.171852 
L 266.019532 263.874943 
L 267.105333 246.611583 
L 268.191134 255.585838 
L 269.276935 259.208209 
L 270.362736 250.35518 
L 271.448538 235.608602 
L 272.534339 233.472443 
L 273.62014 247.380396 
L 274.705941 268.269621 
L 275.791742 262.929276 
L 276.877543 226.716704 
L 277.963344 230.968524 
L 279.049146 258.438426 
L 280.134947 274.372362 
L 281.220748 261.067681 
L 282.306549 211.43388 
L 283.39235 276.54314 
L 284.478151 250.184845 
L 285.563953 256.527742 
L 286.649754 274.618071 
L 287.735555 256.235591 
L 288.821356 249.227398 
L 289.907157 265.071263 
L 290.992958 265.025026 
L 292.07876 245.367422 
L 293.164561 254.676661 
L 294.250362 226.676531 
L 295.336163 267.389636 
L 296.421964 248.718036 
L 297.507765 262.4964 
L 298.593566 270.082848 
L 299.679368 280.94885 
L 300.765169 270.491094 
L 301.85097 265.040416 
L 302.936771 268.178462 
L 304.022572 269.267435 
L 305.108373 240.425014 
L 306.194175 264.892158 
L 307.279976 271.706674 
L 308.365777 269.223346 
L 309.451578 270.454866 
L 310.537379 263.139583 
L 311.62318 273.388421 
L 312.708981 273.929963 
L 313.794783 266.301865 
L 314.880584 269.566669 
L 315.966385 266.77132 
L 317.052186 244.477214 
L 318.137987 262.796313 
L 319.223788 273.927932 
L 320.30959 273.563801 
L 321.395391 250.817161 
L 322.481192 258.719734 
L 323.566993 247.853793 
L 324.652794 252.172443 
L 325.738595 271.779954 
L 326.824396 258.422656 
L 327.910198 249.976314 
L 328.995999 292.843557 
L 330.0818 259.265676 
L 331.167601 235.717635 
L 332.253402 282.337614 
L 333.339203 274.150434 
L 334.425005 240.478819 
L 336.596607 279.551899 
L 337.682408 249.189324 
L 338.768209 270.998266 
L 339.85401 255.445399 
L 340.939811 255.950199 
L 342.025613 259.738352 
L 344.197215 273.500753 
L 345.283016 279.652129 
L 346.368817 260.573756 
L 347.454618 267.056677 
L 348.54042 262.729823 
L 350.712022 288.901183 
L 351.797823 269.676294 
L 352.883624 272.059703 
L 353.969425 246.255297 
L 355.055227 247.648195 
L 356.141028 260.747995 
L 357.226829 277.732488 
L 358.31263 254.54606 
L 359.398431 262.701213 
L 360.484232 266.956757 
L 361.570033 260.492789 
L 362.655835 240.182262 
L 363.741636 276.940832 
L 364.827437 264.716596 
L 365.913238 246.183244 
L 368.08484 268.068714 
L 369.170642 238.607894 
L 370.256443 272.971231 
L 371.342244 267.673054 
L 372.428045 267.74918 
L 373.513846 266.136125 
L 374.599647 260.504792 
L 375.685448 261.919254 
L 376.77125 229.49288 
L 377.857051 254.198173 
L 378.942852 255.009472 
L 380.028653 259.230247 
L 381.114454 260.033669 
L 382.200255 282.125506 
L 383.286057 272.353189 
L 384.371858 252.602058 
L 385.457659 263.869375 
L 386.54346 263.397278 
L 387.629261 267.041986 
L 388.715062 274.258299 
L 389.800863 272.075327 
L 390.886665 239.774182 
L 391.972466 230.999148 
L 393.058267 274.323713 
L 394.144068 262.190844 
L 395.229869 257.327935 
L 396.31567 277.652179 
L 397.401472 263.422803 
L 398.487273 264.968865 
L 398.487273 264.968865 
" style="fill:none;stroke:#008000;stroke-dasharray:9.6,2.4,1.5,2.4;stroke-dashoffset:0;stroke-width:1.5;"/>
   </g>
   <g id="line2d_33">
    <path clip-path="url(#p0dde5e788c)" d="M 73.832727 187.815645 
L 74.918528 170.948283 
L 76.00433 147.050986 
L 77.090131 160.23351 
L 78.175932 159.542772 
L 79.261733 170.765954 
L 80.347534 163.62702 
L 81.433335 152.920076 
L 82.519137 164.544399 
L 83.604938 137.918807 
L 84.690739 129.212867 
L 85.77654 149.167156 
L 86.862341 142.431883 
L 87.948142 128.988355 
L 89.033943 164.646662 
L 90.119745 148.132973 
L 91.205546 121.642734 
L 92.291347 149.571244 
L 93.377148 149.924398 
L 94.462949 132.729853 
L 95.54875 153.511615 
L 96.634552 143.575403 
L 97.720353 141.089554 
L 98.806154 118.435194 
L 100.977756 154.615612 
L 102.063557 133.485641 
L 103.149358 173.238241 
L 104.23516 140.234881 
L 105.320961 120.323995 
L 106.406762 126.343313 
L 107.492563 133.35817 
L 108.578364 157.927648 
L 109.664165 127.259235 
L 110.749967 156.906836 
L 111.835768 139.770961 
L 112.921569 110.609495 
L 114.00737 154.865637 
L 115.093171 175.179201 
L 116.178972 126.517662 
L 117.264773 156.106811 
L 118.350575 133.13996 
L 119.436376 133.220712 
L 120.522177 177.190584 
L 121.607978 120.590968 
L 122.693779 133.263656 
L 123.77958 147.979892 
L 124.865382 138.666926 
L 125.951183 132.79345 
L 127.036984 157.559863 
L 128.122785 139.49165 
L 129.208586 137.785449 
L 130.294387 113.582276 
L 131.380189 143.45242 
L 132.46599 156.724254 
L 133.551791 139.133022 
L 134.637592 126.418422 
L 135.723393 139.071771 
L 136.809194 147.029707 
L 137.894995 126.435583 
L 138.980797 140.434956 
L 140.066598 126.966775 
L 141.152399 135.186017 
L 142.2382 146.552488 
L 143.324001 114.765811 
L 144.409802 133.392487 
L 145.495604 138.812025 
L 146.581405 142.42462 
L 147.667206 149.880457 
L 148.753007 161.529305 
L 149.838808 158.8756 
L 150.924609 137.871894 
L 152.01041 157.725365 
L 153.096212 163.525376 
L 154.182013 148.573483 
L 155.267814 159.03682 
L 156.353615 148.030717 
L 157.439416 156.535466 
L 158.525217 133.442549 
L 159.611019 125.754562 
L 160.69682 167.146027 
L 161.782621 154.623602 
L 162.868422 165.457303 
L 163.954223 142.461741 
L 165.040024 129.992078 
L 166.125825 138.534758 
L 167.211627 135.372116 
L 168.297428 152.218019 
L 169.383229 132.178473 
L 170.46903 142.732283 
L 171.554831 139.655145 
L 172.640632 119.539381 
L 173.726434 125.417484 
L 174.812235 132.426864 
L 175.898036 131.171156 
L 176.983837 118.015232 
L 178.069638 113.154048 
L 179.155439 123.126025 
L 180.24124 127.841501 
L 181.327042 112.091767 
L 182.412843 122.404043 
L 183.498644 142.013135 
L 185.670246 132.723251 
L 186.756047 145.23065 
L 187.841849 134.313399 
L 188.92765 131.363353 
L 190.013451 112.869878 
L 191.099252 131.826955 
L 192.185053 126.374399 
L 193.270854 122.435587 
L 194.356656 121.71669 
L 195.442457 138.511383 
L 196.528258 122.976785 
L 197.614059 112.424038 
L 198.69986 120.777336 
L 199.785661 140.20233 
L 200.871462 115.076989 
L 201.957264 128.789605 
L 203.043065 134.344943 
L 204.128866 117.333892 
L 205.214667 120.736106 
L 206.300468 130.695971 
L 208.472071 111.804628 
L 209.557872 120.68217 
L 210.643673 133.387087 
L 211.729474 119.524785 
L 212.815275 114.851946 
L 213.901076 120.019274 
L 214.986877 109.248833 
L 216.072679 122.552161 
L 217.15848 114.309338 
L 218.244281 108.000686 
L 219.330082 133.166578 
L 220.415883 119.246386 
L 221.501684 114.82263 
L 222.587486 122.003558 
L 223.673287 127.660825 
L 224.759088 98.261353 
L 225.844889 119.118631 
L 226.93069 124.532841 
L 228.016491 123.460631 
L 229.102292 113.313224 
L 230.188094 105.143095 
L 231.273895 107.066915 
L 232.359696 109.362391 
L 233.445497 113.673655 
L 234.531298 123.101187 
L 235.617099 114.144247 
L 236.702901 109.872187 
L 237.788702 110.53011 
L 238.874503 123.322785 
L 239.960304 113.092702 
L 241.046105 106.110067 
L 242.131906 108.265244 
L 243.217708 127.62552 
L 244.303509 116.316096 
L 245.38931 115.026078 
L 246.475111 128.38182 
L 247.560912 113.21781 
L 248.646713 119.397376 
L 249.732514 117.992874 
L 250.818316 106.41089 
L 251.904117 117.373894 
L 252.989918 118.32013 
L 254.075719 116.763326 
L 255.16152 114.511699 
L 256.247321 120.563074 
L 257.333123 113.152837 
L 258.418924 109.101778 
L 259.504725 116.406943 
L 260.590526 119.082905 
L 261.676327 115.567108 
L 262.762128 114.927782 
L 263.847929 135.623635 
L 264.933731 101.3433 
L 266.019532 131.030237 
L 267.105333 111.914114 
L 269.276935 121.459892 
L 270.362736 112.872729 
L 271.448538 106.291131 
L 272.534339 106.430817 
L 273.62014 109.00154 
L 274.705941 130.046842 
L 276.877543 103.756252 
L 277.963344 99.343929 
L 280.134947 137.841168 
L 281.220748 124.268787 
L 282.306549 93.618323 
L 283.39235 140.950074 
L 284.478151 117.621627 
L 285.563953 103.843285 
L 286.649754 136.586949 
L 287.735555 118.009801 
L 288.821356 112.157658 
L 290.992958 124.4001 
L 292.07876 112.632344 
L 293.164561 122.564565 
L 294.250362 96.970656 
L 295.336163 130.401356 
L 296.421964 101.567681 
L 298.593566 125.411243 
L 299.679368 140.803343 
L 300.765169 128.457639 
L 301.85097 127.126595 
L 302.936771 133.498685 
L 304.022572 129.746674 
L 305.108373 102.620334 
L 306.194175 123.385148 
L 307.279976 129.414745 
L 308.365777 129.054053 
L 309.451578 133.722176 
L 310.537379 129.827823 
L 311.62318 132.889202 
L 312.708981 138.379893 
L 313.794783 124.549012 
L 314.880584 125.202585 
L 315.966385 126.924618 
L 317.052186 96.034426 
L 318.137987 122.239242 
L 319.223788 126.700605 
L 320.30959 134.594565 
L 321.395391 114.021933 
L 323.566993 106.239607 
L 324.652794 108.414241 
L 325.738595 121.629229 
L 326.824396 115.459634 
L 327.910198 100.240808 
L 328.995999 134.315098 
L 330.0818 115.787321 
L 331.167601 102.647528 
L 332.253402 145.741437 
L 333.339203 136.700611 
L 334.425005 111.865957 
L 335.510806 114.611897 
L 336.596607 139.035528 
L 337.682408 109.667448 
L 338.768209 133.802766 
L 339.85401 105.599212 
L 340.939811 119.176358 
L 342.025613 110.118676 
L 343.111414 125.875373 
L 345.283016 144.254111 
L 346.368817 118.228798 
L 347.454618 125.327868 
L 348.54042 122.381295 
L 349.626221 131.520196 
L 350.712022 108.930653 
L 351.797823 130.185783 
L 352.883624 105.61358 
L 353.969425 109.172213 
L 355.055227 105.594892 
L 356.141028 120.832777 
L 357.226829 127.012781 
L 358.31263 109.016347 
L 359.398431 124.449099 
L 360.484232 116.65701 
L 362.655835 108.680381 
L 363.741636 113.23957 
L 364.827437 131.408892 
L 365.913238 101.684233 
L 366.999039 113.596856 
L 368.08484 118.976375 
L 369.170642 114.605206 
L 370.256443 144.399143 
L 371.342244 128.44183 
L 372.428045 128.771106 
L 373.513846 126.248919 
L 374.599647 116.169698 
L 375.685448 121.963329 
L 376.77125 96.597686 
L 377.857051 112.503234 
L 378.942852 107.804914 
L 380.028653 116.515979 
L 381.114454 116.442239 
L 382.200255 140.617002 
L 383.286057 133.108266 
L 384.371858 107.571564 
L 385.457659 112.126374 
L 386.54346 118.549126 
L 387.629261 117.143876 
L 388.715062 135.804311 
L 389.800863 120.390617 
L 390.886665 98.181471 
L 391.972466 103.711836 
L 393.058267 129.687147 
L 394.144068 116.055033 
L 395.229869 109.539948 
L 396.31567 139.616989 
L 397.401472 118.888775 
L 398.487273 121.528082 
L 398.487273 121.528082 
" style="fill:none;stroke:#008000;stroke-dasharray:9.6,2.4,1.5,2.4;stroke-dashoffset:0;stroke-width:1.5;"/>
   </g>
   <g id="line2d_34">
    <path clip-path="url(#p0dde5e788c)" d="M 73.832727 128.135071 
L 79.261733 128.135071 
L 80.347534 127.626216 
L 81.433335 126.559383 
L 89.033943 126.47012 
L 93.377148 126.43992 
L 171.554831 126.435716 
L 172.640632 109.307402 
L 173.726434 99.95328 
L 183.498644 99.95328 
L 184.584445 84.539488 
L 223.673287 84.539488 
L 224.759088 84.157226 
L 241.046105 84.157226 
L 242.131906 83.42107 
L 274.705941 83.42107 
L 275.791742 76.176837 
L 295.336163 76.176837 
L 296.421964 62.460712 
L 318.137987 62.460712 
L 319.223788 62.151157 
L 360.484232 62.151157 
L 361.570033 61.850856 
L 388.715062 61.850856 
L 389.800863 53.568 
L 398.487273 53.568 
L 398.487273 53.568 
" style="fill:none;stroke:#ff0000;stroke-linecap:square;stroke-width:1.5;"/>
   </g>
   <g id="patch_3">
    <path d="M 57.6 307.584 
L 57.6 41.472 
" style="fill:none;stroke:#000000;stroke-linecap:square;stroke-linejoin:miter;stroke-width:0.8;"/>
   </g>
   <g id="patch_4">
    <path d="M 414.72 307.584 
L 414.72 41.472 
" style="fill:none;stroke:#000000;stroke-linecap:square;stroke-linejoin:miter;stroke-width:0.8;"/>
   </g>
   <g id="patch_5">
    <path d="M 57.6 307.584 
L 414.72 307.584 
" style="fill:none;stroke:#000000;stroke-linecap:square;stroke-linejoin:miter;stroke-width:0.8;"/>
   </g>
   <g id="patch_6">
    <path d="M 57.6 41.472 
L 414.72 41.472 
" style="fill:none;stroke:#000000;stroke-linecap:square;stroke-linejoin:miter;stroke-width:0.8;"/>
   </g>
   <g id="text_18">
    <!-- Population's average and best fitness -->
    <g transform="translate(123.529687 35.472)scale(0.12 -0.12)">
     <defs>
      <path d="M 1259 4147 
L 1259 2394 
L 2053 2394 
Q 2494 2394 2734 2622 
Q 2975 2850 2975 3272 
Q 2975 3691 2734 3919 
Q 2494 4147 2053 4147 
L 1259 4147 
z
M 628 4666 
L 2053 4666 
Q 2838 4666 3239 4311 
Q 3641 3956 3641 3272 
Q 3641 2581 3239 2228 
Q 2838 1875 2053 1875 
L 1259 1875 
L 1259 0 
L 628 0 
L 628 4666 
z
" id="DejaVuSans-50" transform="scale(0.015625)"/>
      <path d="M 1159 525 
L 1159 -1331 
L 581 -1331 
L 581 3500 
L 1159 3500 
L 1159 2969 
Q 1341 3281 1617 3432 
Q 1894 3584 2278 3584 
Q 2916 3584 3314 3078 
Q 3713 2572 3713 1747 
Q 3713 922 3314 415 
Q 2916 -91 2278 -91 
Q 1894 -91 1617 61 
Q 1341 213 1159 525 
z
M 3116 1747 
Q 3116 2381 2855 2742 
Q 2594 3103 2138 3103 
Q 1681 3103 1420 2742 
Q 1159 2381 1159 1747 
Q 1159 1113 1420 752 
Q 1681 391 2138 391 
Q 2594 391 2855 752 
Q 3116 1113 3116 1747 
z
" id="DejaVuSans-70" transform="scale(0.015625)"/>
      <path d="M 544 1381 
L 544 3500 
L 1119 3500 
L 1119 1403 
Q 1119 906 1312 657 
Q 1506 409 1894 409 
Q 2359 409 2629 706 
Q 2900 1003 2900 1516 
L 2900 3500 
L 3475 3500 
L 3475 0 
L 2900 0 
L 2900 538 
Q 2691 219 2414 64 
Q 2138 -91 1772 -91 
Q 1169 -91 856 284 
Q 544 659 544 1381 
z
M 1991 3584 
L 1991 3584 
z
" id="DejaVuSans-75" transform="scale(0.015625)"/>
      <path d="M 603 4863 
L 1178 4863 
L 1178 0 
L 603 0 
L 603 4863 
z
" id="DejaVuSans-6c" transform="scale(0.015625)"/>
      <path d="M 1147 4666 
L 1147 2931 
L 616 2931 
L 616 4666 
L 1147 4666 
z
" id="DejaVuSans-27" transform="scale(0.015625)"/>
      <path id="DejaVuSans-20" transform="scale(0.015625)"/>
      <path d="M 191 3500 
L 800 3500 
L 1894 563 
L 2988 3500 
L 3597 3500 
L 2284 0 
L 1503 0 
L 191 3500 
z
" id="DejaVuSans-76" transform="scale(0.015625)"/>
      <path d="M 2906 1791 
Q 2906 2416 2648 2759 
Q 2391 3103 1925 3103 
Q 1463 3103 1205 2759 
Q 947 2416 947 1791 
Q 947 1169 1205 825 
Q 1463 481 1925 481 
Q 2391 481 2648 825 
Q 2906 1169 2906 1791 
z
M 3481 434 
Q 3481 -459 3084 -895 
Q 2688 -1331 1869 -1331 
Q 1566 -1331 1297 -1286 
Q 1028 -1241 775 -1147 
L 775 -588 
Q 1028 -725 1275 -790 
Q 1522 -856 1778 -856 
Q 2344 -856 2625 -561 
Q 2906 -266 2906 331 
L 2906 616 
Q 2728 306 2450 153 
Q 2172 0 1784 0 
Q 1141 0 747 490 
Q 353 981 353 1791 
Q 353 2603 747 3093 
Q 1141 3584 1784 3584 
Q 2172 3584 2450 3431 
Q 2728 3278 2906 2969 
L 2906 3500 
L 3481 3500 
L 3481 434 
z
" id="DejaVuSans-67" transform="scale(0.015625)"/>
      <path d="M 2906 2969 
L 2906 4863 
L 3481 4863 
L 3481 0 
L 2906 0 
L 2906 525 
Q 2725 213 2448 61 
Q 2172 -91 1784 -91 
Q 1150 -91 751 415 
Q 353 922 353 1747 
Q 353 2572 751 3078 
Q 1150 3584 1784 3584 
Q 2172 3584 2448 3432 
Q 2725 3281 2906 2969 
z
M 947 1747 
Q 947 1113 1208 752 
Q 1469 391 1925 391 
Q 2381 391 2643 752 
Q 2906 1113 2906 1747 
Q 2906 2381 2643 2742 
Q 2381 3103 1925 3103 
Q 1469 3103 1208 2742 
Q 947 2381 947 1747 
z
" id="DejaVuSans-64" transform="scale(0.015625)"/>
      <path d="M 3116 1747 
Q 3116 2381 2855 2742 
Q 2594 3103 2138 3103 
Q 1681 3103 1420 2742 
Q 1159 2381 1159 1747 
Q 1159 1113 1420 752 
Q 1681 391 2138 391 
Q 2594 391 2855 752 
Q 3116 1113 3116 1747 
z
M 1159 2969 
Q 1341 3281 1617 3432 
Q 1894 3584 2278 3584 
Q 2916 3584 3314 3078 
Q 3713 2572 3713 1747 
Q 3713 922 3314 415 
Q 2916 -91 2278 -91 
Q 1894 -91 1617 61 
Q 1341 213 1159 525 
L 1159 0 
L 581 0 
L 581 4863 
L 1159 4863 
L 1159 2969 
z
" id="DejaVuSans-62" transform="scale(0.015625)"/>
      <path d="M 2375 4863 
L 2375 4384 
L 1825 4384 
Q 1516 4384 1395 4259 
Q 1275 4134 1275 3809 
L 1275 3500 
L 2222 3500 
L 2222 3053 
L 1275 3053 
L 1275 0 
L 697 0 
L 697 3053 
L 147 3053 
L 147 3500 
L 697 3500 
L 697 3744 
Q 697 4328 969 4595 
Q 1241 4863 1831 4863 
L 2375 4863 
z
" id="DejaVuSans-66" transform="scale(0.015625)"/>
     </defs>
     <use xlink:href="#DejaVuSans-50"/>
     <use x="56.677734" xlink:href="#DejaVuSans-6f"/>
     <use x="117.859375" xlink:href="#DejaVuSans-70"/>
     <use x="181.335938" xlink:href="#DejaVuSans-75"/>
     <use x="244.714844" xlink:href="#DejaVuSans-6c"/>
     <use x="272.498047" xlink:href="#DejaVuSans-61"/>
     <use x="333.777344" xlink:href="#DejaVuSans-74"/>
     <use x="372.986328" xlink:href="#DejaVuSans-69"/>
     <use x="400.769531" xlink:href="#DejaVuSans-6f"/>
     <use x="461.951172" xlink:href="#DejaVuSans-6e"/>
     <use x="525.330078" xlink:href="#DejaVuSans-27"/>
     <use x="552.820312" xlink:href="#DejaVuSans-73"/>
     <use x="604.919922" xlink:href="#DejaVuSans-20"/>
     <use x="636.707031" xlink:href="#DejaVuSans-61"/>
     <use x="697.986328" xlink:href="#DejaVuSans-76"/>
     <use x="757.166016" xlink:href="#DejaVuSans-65"/>
     <use x="818.689453" xlink:href="#DejaVuSans-72"/>
     <use x="859.802734" xlink:href="#DejaVuSans-61"/>
     <use x="921.082031" xlink:href="#DejaVuSans-67"/>
     <use x="984.558594" xlink:href="#DejaVuSans-65"/>
     <use x="1046.082031" xlink:href="#DejaVuSans-20"/>
     <use x="1077.869141" xlink:href="#DejaVuSans-61"/>
     <use x="1139.148438" xlink:href="#DejaVuSans-6e"/>
     <use x="1202.527344" xlink:href="#DejaVuSans-64"/>
     <use x="1266.003906" xlink:href="#DejaVuSans-20"/>
     <use x="1297.791016" xlink:href="#DejaVuSans-62"/>
     <use x="1361.267578" xlink:href="#DejaVuSans-65"/>
     <use x="1422.791016" xlink:href="#DejaVuSans-73"/>
     <use x="1474.890625" xlink:href="#DejaVuSans-74"/>
     <use x="1514.099609" xlink:href="#DejaVuSans-20"/>
     <use x="1545.886719" xlink:href="#DejaVuSans-66"/>
     <use x="1581.091797" xlink:href="#DejaVuSans-69"/>
     <use x="1608.875" xlink:href="#DejaVuSans-74"/>
     <use x="1648.083984" xlink:href="#DejaVuSans-6e"/>
     <use x="1711.462891" xlink:href="#DejaVuSans-65"/>
     <use x="1772.986328" xlink:href="#DejaVuSans-73"/>
     <use x="1825.085938" xlink:href="#DejaVuSans-73"/>
    </g>
   </g>
   <g id="legend_1">
    <g id="patch_7">
     <path d="M 64.6 108.1845 
L 137.540625 108.1845 
Q 139.540625 108.1845 139.540625 106.1845 
L 139.540625 48.472 
Q 139.540625 46.472 137.540625 46.472 
L 64.6 46.472 
Q 62.6 46.472 62.6 48.472 
L 62.6 106.1845 
Q 62.6 108.1845 64.6 108.1845 
z
" style="fill:#ffffff;opacity:0.8;stroke:#cccccc;stroke-linejoin:miter;"/>
    </g>
    <g id="line2d_35">
     <path d="M 66.6 54.570438 
L 86.6 54.570438 
" style="fill:none;stroke:#0000ff;stroke-linecap:square;stroke-width:1.5;"/>
    </g>
    <g id="line2d_36"/>
    <g id="text_19">
     <!-- average -->
     <g transform="translate(94.6 58.070438)scale(0.1 -0.1)">
      <use xlink:href="#DejaVuSans-61"/>
      <use x="61.279297" xlink:href="#DejaVuSans-76"/>
      <use x="120.458984" xlink:href="#DejaVuSans-65"/>
      <use x="181.982422" xlink:href="#DejaVuSans-72"/>
      <use x="223.095703" xlink:href="#DejaVuSans-61"/>
      <use x="284.375" xlink:href="#DejaVuSans-67"/>
      <use x="347.851562" xlink:href="#DejaVuSans-65"/>
     </g>
    </g>
    <g id="line2d_37">
     <path d="M 66.6 69.248563 
L 86.6 69.248563 
" style="fill:none;stroke:#008000;stroke-dasharray:9.6,2.4,1.5,2.4;stroke-dashoffset:0;stroke-width:1.5;"/>
    </g>
    <g id="line2d_38"/>
    <g id="text_20">
     <!-- -1 sd -->
     <g transform="translate(94.6 72.748563)scale(0.1 -0.1)">
      <defs>
       <path d="M 313 2009 
L 1997 2009 
L 1997 1497 
L 313 1497 
L 313 2009 
z
" id="DejaVuSans-2d" transform="scale(0.015625)"/>
      </defs>
      <use xlink:href="#DejaVuSans-2d"/>
      <use x="36.083984" xlink:href="#DejaVuSans-31"/>
      <use x="99.707031" xlink:href="#DejaVuSans-20"/>
      <use x="131.494141" xlink:href="#DejaVuSans-73"/>
      <use x="183.59375" xlink:href="#DejaVuSans-64"/>
     </g>
    </g>
    <g id="line2d_39">
     <path d="M 66.6 83.926688 
L 86.6 83.926688 
" style="fill:none;stroke:#008000;stroke-dasharray:9.6,2.4,1.5,2.4;stroke-dashoffset:0;stroke-width:1.5;"/>
    </g>
    <g id="line2d_40"/>
    <g id="text_21">
     <!-- +1 sd -->
     <g transform="translate(94.6 87.426688)scale(0.1 -0.1)">
      <defs>
       <path d="M 2944 4013 
L 2944 2272 
L 4684 2272 
L 4684 1741 
L 2944 1741 
L 2944 0 
L 2419 0 
L 2419 1741 
L 678 1741 
L 678 2272 
L 2419 2272 
L 2419 4013 
L 2944 4013 
z
" id="DejaVuSans-2b" transform="scale(0.015625)"/>
      </defs>
      <use xlink:href="#DejaVuSans-2b"/>
      <use x="83.789062" xlink:href="#DejaVuSans-31"/>
      <use x="147.412109" xlink:href="#DejaVuSans-20"/>
      <use x="179.199219" xlink:href="#DejaVuSans-73"/>
      <use x="231.298828" xlink:href="#DejaVuSans-64"/>
     </g>
    </g>
    <g id="line2d_41">
     <path d="M 66.6 98.604813 
L 86.6 98.604813 
" style="fill:none;stroke:#ff0000;stroke-linecap:square;stroke-width:1.5;"/>
    </g>
    <g id="line2d_42"/>
    <g id="text_22">
     <!-- best -->
     <g transform="translate(94.6 102.104813)scale(0.1 -0.1)">
      <use xlink:href="#DejaVuSans-62"/>
      <use x="63.476562" xlink:href="#DejaVuSans-65"/>
      <use x="125" xlink:href="#DejaVuSans-73"/>
      <use x="177.099609" xlink:href="#DejaVuSans-74"/>
     </g>
    </g>
   </g>
  </g>
 </g>
 <defs>
  <clipPath id="p0dde5e788c">
   <rect height="266.112" width="357.12" x="57.6" y="41.472"/>
  </clipPath>
 </defs>
</svg>
