<?xml version="1.0" encoding="UTF-8" standalone="no"?>
<!DOCTYPE svg PUBLIC "-//W3C//DTD SVG 1.1//EN"
 "http://www.w3.org/Graphics/SVG/1.1/DTD/svg11.dtd">
<!-- Generated by graphviz version 2.48.0 (20210717.1556)
 -->
<!-- Pages: 1 -->
<svg width="154pt" height="292pt"
 viewBox="0.00 0.00 154.43 292.39" xmlns="http://www.w3.org/2000/svg" xmlns:xlink="http://www.w3.org/1999/xlink">
<g id="graph0" class="graph" transform="scale(1 1) rotate(0) translate(4 288.39)">
<polygon fill="white" stroke="transparent" points="-4,4 -4,-288.39 150.43,-288.39 150.43,4 -4,4"/>
<!-- A -->
<g id="node1" class="node">
<title>A</title>
<polygon fill="lightgray" stroke="black" points="32.71,-284.39 9.71,-284.39 9.71,-266.39 32.71,-266.39 32.71,-284.39"/>
<text text-anchor="middle" x="21.21" y="-273.19" font-family="Times,serif" font-size="9.00">A</text>
</g>
<!-- 630 -->
<g id="node7" class="node">
<title>630</title>
<ellipse fill="white" stroke="black" cx="21.21" cy="-209.18" rx="21.43" ry="21.43"/>
<text text-anchor="middle" x="21.21" y="-206.98" font-family="Times,serif" font-size="9.00">630</text>
</g>
<!-- A&#45;&gt;630 -->
<g id="edge6" class="edge">
<title>A&#45;&gt;630</title>
<path fill="none" stroke="green" stroke-width="0.78" d="M21.21,-266.26C21.21,-259.72 21.21,-250.09 21.21,-240.65"/>
<polygon fill="green" stroke="green" stroke-width="0.78" points="24.71,-240.63 21.21,-230.63 17.71,-240.63 24.71,-240.63"/>
</g>
<!-- B -->
<g id="node2" class="node">
<title>B</title>
<polygon fill="lightgray" stroke="black" points="81.71,-284.39 58.71,-284.39 58.71,-266.39 81.71,-266.39 81.71,-284.39"/>
<text text-anchor="middle" x="70.21" y="-273.19" font-family="Times,serif" font-size="9.00">B</text>
</g>
<!-- 292 -->
<g id="node4" class="node">
<title>292</title>
<ellipse fill="white" stroke="black" cx="65.21" cy="-130.75" rx="21.43" ry="21.43"/>
<text text-anchor="middle" x="65.21" y="-128.55" font-family="Times,serif" font-size="9.00">292</text>
</g>
<!-- B&#45;&gt;292 -->
<g id="edge2" class="edge">
<title>B&#45;&gt;292</title>
<path fill="none" stroke="green" stroke-width="1.45" d="M69.93,-266.31C69.24,-246.64 67.44,-195.41 66.28,-162.14"/>
<polygon fill="green" stroke="green" stroke-width="1.45" points="69.77,-161.9 65.92,-152.03 62.78,-162.15 69.77,-161.9"/>
</g>
<!-- 331 -->
<g id="node6" class="node">
<title>331</title>
<ellipse fill="white" stroke="black" cx="122.21" cy="-209.18" rx="21.43" ry="21.43"/>
<text text-anchor="middle" x="122.21" y="-206.98" font-family="Times,serif" font-size="9.00">331</text>
</g>
<!-- B&#45;&gt;331 -->
<g id="edge5" class="edge">
<title>B&#45;&gt;331</title>
<path fill="none" stroke="green" stroke-width="0.67" d="M76.8,-266.26C83.35,-258.17 93.73,-245.35 102.91,-234.02"/>
<polygon fill="green" stroke="green" stroke-width="0.67" points="105.74,-236.08 109.31,-226.11 100.3,-231.68 105.74,-236.08"/>
</g>
<!-- B&#45;&gt;630 -->
<g id="edge8" class="edge">
<title>B&#45;&gt;630</title>
<path fill="none" stroke="red" stroke-width="0.12" d="M64.01,-266.26C57.97,-258.35 48.5,-245.94 40,-234.8"/>
<polygon fill="red" stroke="red" stroke-width="0.12" points="42.61,-232.45 33.76,-226.63 37.05,-236.7 42.61,-232.45"/>
</g>
<!-- A XOR B -->
<g id="node3" class="node">
<title>A XOR B</title>
<ellipse fill="lightblue" stroke="black" cx="65.21" cy="-36.77" rx="36.54" ry="36.54"/>
<text text-anchor="middle" x="65.21" y="-34.57" font-family="Times,serif" font-size="9.00">A XOR B</text>
</g>
<!-- 292&#45;&gt;A XOR B -->
<g id="edge3" class="edge">
<title>292&#45;&gt;A XOR B</title>
<path fill="none" stroke="green" stroke-width="0.97" d="M65.21,-109.34C65.21,-101.72 65.21,-92.74 65.21,-83.75"/>
<polygon fill="green" stroke="green" stroke-width="0.97" points="68.71,-83.68 65.21,-73.68 61.71,-83.68 68.71,-83.68"/>
</g>
<!-- 202 -->
<g id="node5" class="node">
<title>202</title>
<ellipse fill="white" stroke="black" cx="125.21" cy="-130.75" rx="21.43" ry="21.43"/>
<text text-anchor="middle" x="125.21" y="-128.55" font-family="Times,serif" font-size="9.00">202</text>
</g>
<!-- 202&#45;&gt;A XOR B -->
<g id="edge1" class="edge">
<title>202&#45;&gt;A XOR B</title>
<path fill="none" stroke="red" stroke-width="0.88" d="M113.93,-112.45C107.31,-102.3 98.66,-89.05 90.5,-76.53"/>
<polygon fill="red" stroke="red" stroke-width="0.88" points="93.35,-74.49 84.95,-68.03 87.48,-78.32 93.35,-74.49"/>
</g>
<!-- 331&#45;&gt;202 -->
<g id="edge4" class="edge">
<title>331&#45;&gt;202</title>
<path fill="none" stroke="green" stroke-width="0.69" d="M123.02,-187.7C123.33,-179.84 123.68,-170.69 124.02,-162.1"/>
<polygon fill="green" stroke="green" stroke-width="0.69" points="127.52,-162.15 124.42,-152.02 120.53,-161.88 127.52,-162.15"/>
</g>
<!-- 630&#45;&gt;A XOR B -->
<g id="edge9" class="edge">
<title>630&#45;&gt;A XOR B</title>
<path fill="none" stroke="red" stroke-width="0.13" d="M22.58,-187.85C24.28,-167.68 27.92,-136.06 35.21,-109.54 37.93,-99.68 41.66,-89.37 45.57,-79.74"/>
<polygon fill="red" stroke="red" stroke-width="0.13" points="48.86,-80.95 49.52,-70.38 42.41,-78.23 48.86,-80.95"/>
</g>
<!-- 630&#45;&gt;292 -->
<g id="edge7" class="edge">
<title>630&#45;&gt;292</title>
<path fill="none" stroke="green" stroke-width="1.12" d="M31.42,-190.45C36.92,-180.9 43.81,-168.93 49.93,-158.29"/>
<polygon fill="green" stroke="green" stroke-width="1.12" points="53.11,-159.79 55.06,-149.38 47.04,-156.3 53.11,-159.79"/>
</g>
</g>
</svg>
